<?xml version="1.0" encoding="utf-8"?>
<!-- Generator: Adobe Illustrator 25.4.1, SVG Export Plug-In . SVG Version: 6.00 Build 0)  -->
<svg version="1.1" id="Layer_1" xmlns="http://www.w3.org/2000/svg" xmlns:xlink="http://www.w3.org/1999/xlink" x="0px" y="0px"
	 viewBox="0 0 19 74" style="enable-background:new 0 0 19 74;" xml:space="preserve">
<style type="text/css">
	.st0{fill:#0000FF;}
</style>
<path class="st0" d="M11.9,15.79h-1.23L5.9,6.98v8.82H4.67V4.59H5.9l4.77,8.82V4.59h1.23V15.79z"/>
<path class="st0" d="M4.67,17.79H5.9v7.57c0,1.7,1.06,2.58,2.38,2.58c1.33,0,2.38-0.88,2.38-2.58v-7.57h1.23v7.57
	c0,2.35-1.47,3.79-3.62,3.79c-2.15,0-3.62-1.44-3.62-3.79V17.79z"/>
<path class="st0" d="M4.86,30.99h3.73c2.38,0,3.23,1.58,3.23,3.07c0,1.09-0.51,1.95-1.23,2.4c1.02,0.51,1.5,1.57,1.5,2.59
	c0,1.55-0.83,3.14-3.23,3.14h-4V30.99z M8.59,32.21h-2.5v3.71h2.5c1.26,0,1.99-0.78,1.99-1.86S9.85,32.21,8.59,32.21z M6.09,37.14
	v3.84h2.77c1.22,0,1.98-0.72,1.98-1.92c0-1.2-0.77-1.92-1.98-1.92H6.09z"/>
<path class="st0" d="M6.49,54.18h5.14v1.22H5.26v-11.2h6.37v1.22H6.49v3.71h4.02v1.22H6.49V54.18z"/>
<path class="st0" d="M5.26,62.46c0-1.78,1.46-3.23,3.23-3.23c1.78,0,3.23,1.46,3.23,3.23v0.8c0,0.72-0.24,1.39-0.64,1.94l-4.02,5.47
	l-0.93-0.69l2.56-3.5C8.64,66.5,8.57,66.5,8.49,66.5c-1.78,0-3.23-1.46-3.23-3.23V62.46z M6.46,63.26c0,1.12,0.9,2.08,2.03,2.08
	s2.03-0.96,2.03-2.08v-0.8c0-1.12-0.9-2.08-2.03-2.08s-2.03,0.96-2.03,2.08V63.26z"/>
</svg>
